<svg width="133" height="20" viewBox="0 0 133 20" fill="none" xmlns="http://www.w3.org/2000/svg">
<path d="M8.31641 19L4.8125 6.66016H4.70703C4.87109 8.76172 4.95312 10.3945 4.95312 11.5586V19H0.851562V1.86719H7.01562L10.5898 14.0312H10.6836L14.1875 1.86719H20.3633V19H16.1094V11.4883C16.1094 11.0977 16.1133 10.6641 16.1211 10.1875C16.1367 9.71094 16.1914 8.54297 16.2852 6.68359H16.1797L12.7227 19H8.31641ZM25.9906 19H21.4086V5.72266H25.9906V19ZM21.2914 2.41797C21.2914 1.73047 21.4828 1.21875 21.8656 0.882812C22.2484 0.546875 22.8656 0.378906 23.7172 0.378906C24.5688 0.378906 25.1898 0.550781 25.5805 0.894531C25.9711 1.23828 26.1664 1.74609 26.1664 2.41797C26.1664 3.76172 25.35 4.43359 23.7172 4.43359C22.1 4.43359 21.2914 3.76172 21.2914 2.41797ZM36.9969 19H27.6336V1.86719H36.9969V2.96875H28.8289V9.44922H36.5398V10.5508H28.8289V17.8984H36.9969V19ZM43.2687 19.2344C41.4484 19.2344 40.0227 18.6602 38.9914 17.5117C37.9602 16.3633 37.4445 14.7617 37.4445 12.707C37.4445 10.5977 37.9797 8.95703 39.05 7.78516C40.1203 6.60547 41.5852 6.01562 43.4445 6.01562C44.5461 6.01562 45.6008 6.20703 46.6086 6.58984L46.2922 7.62109C45.1906 7.25391 44.2336 7.07031 43.4211 7.07031C41.8586 7.07031 40.675 7.55469 39.8703 8.52344C39.0656 9.48438 38.6633 10.8711 38.6633 12.6836C38.6633 14.4023 39.0656 15.75 39.8703 16.7266C40.675 17.6953 41.8 18.1797 43.2453 18.1797C44.4016 18.1797 45.4758 17.9727 46.468 17.5586V18.6367C45.6555 19.0352 44.5891 19.2344 43.2687 19.2344ZM57.732 12.6133C57.732 14.6914 57.2281 16.3164 56.2203 17.4883C55.2125 18.6523 53.8219 19.2344 52.0484 19.2344C50.9313 19.2344 49.9469 18.9648 49.0953 18.4258C48.2438 17.8867 47.5914 17.1133 47.1383 16.1055C46.6852 15.0977 46.4586 13.9336 46.4586 12.6133C46.4586 10.5352 46.9625 8.91797 47.9703 7.76172C48.9781 6.59766 50.3609 6.01562 52.1188 6.01562C53.8688 6.01562 55.2398 6.60547 56.232 7.78516C57.232 8.95703 57.732 10.5664 57.732 12.6133ZM47.6773 12.6133C47.6773 14.3633 48.0602 15.7305 48.8258 16.7148C49.5992 17.6914 50.6891 18.1797 52.0953 18.1797C53.5016 18.1797 54.5875 17.6914 55.3531 16.7148C56.1266 15.7305 56.5133 14.3633 56.5133 12.6133C56.5133 10.8555 56.1227 9.49219 55.3414 8.52344C54.568 7.55469 53.4781 7.07031 52.0719 7.07031C50.6656 7.07031 49.5797 7.55469 48.8141 8.52344C48.0563 9.48438 47.6773 10.8477 47.6773 12.6133ZM74.7734 19V10.6445C74.7734 9.40234 74.5312 8.49609 74.0469 7.92578C73.5625 7.35547 72.8203 7.07031 71.8203 7.07031C70.5156 7.07031 69.5508 7.42969 68.9258 8.14844C68.3008 8.86719 67.9883 9.99609 67.9883 11.5352V19H66.8047V10.293C66.8047 8.14453 65.8203 7.07031 63.8516 7.07031C62.5156 7.07031 61.543 7.46094 60.9336 8.24219C60.3242 9.01562 60.0195 10.2578 60.0195 11.9688V19H58.8594V6.26172H59.8203L60.0664 8.00781H60.1367C60.4883 7.375 60.9883 6.88672 61.6367 6.54297C62.2852 6.19141 63 6.01562 63.7812 6.01562C65.7891 6.01562 67.0781 6.76953 67.6484 8.27734H67.6953C68.1094 7.55078 68.6641 6.99219 69.3594 6.60156C70.0625 6.21094 70.8594 6.01562 71.75 6.01562C73.1406 6.01562 74.1836 6.38672 74.8789 7.12891C75.5742 7.87109 75.9219 9.05078 75.9219 10.668V19H74.7734ZM93.5609 19V10.6445C93.5609 9.40234 93.3187 8.49609 92.8344 7.92578C92.35 7.35547 91.6078 7.07031 90.6078 7.07031C89.3031 7.07031 88.3383 7.42969 87.7133 8.14844C87.0883 8.86719 86.7758 9.99609 86.7758 11.5352V19H85.5922V10.293C85.5922 8.14453 84.6078 7.07031 82.6391 7.07031C81.3031 7.07031 80.3305 7.46094 79.7211 8.24219C79.1117 9.01562 78.807 10.2578 78.807 11.9688V19H77.6469V6.26172H78.6078L78.8539 8.00781H78.9242C79.2758 7.375 79.7758 6.88672 80.4242 6.54297C81.0727 6.19141 81.7875 6.01562 82.5687 6.01562C84.5766 6.01562 85.8656 6.76953 86.4359 8.27734H86.4828C86.8969 7.55078 87.4516 6.99219 88.1469 6.60156C88.85 6.21094 89.6469 6.01562 90.5375 6.01562C91.9281 6.01562 92.9711 6.38672 93.6664 7.12891C94.3617 7.87109 94.7094 9.05078 94.7094 10.668V19H93.5609ZM101.579 19.2344C99.7273 19.2344 98.282 18.6641 97.243 17.5234C96.2117 16.3828 95.6961 14.7852 95.6961 12.7305C95.6961 10.6992 96.1961 9.07422 97.1961 7.85547C98.1961 6.62891 99.5437 6.01562 101.239 6.01562C102.739 6.01562 103.923 6.53906 104.79 7.58594C105.657 8.63281 106.091 10.0547 106.091 11.8516V12.7891H96.9148C96.9305 14.5391 97.3367 15.875 98.1336 16.7969C98.9383 17.7188 100.087 18.1797 101.579 18.1797C102.305 18.1797 102.942 18.1289 103.489 18.0273C104.044 17.9258 104.743 17.707 105.587 17.3711V18.4258C104.868 18.7383 104.204 18.9492 103.595 19.0586C102.985 19.1758 102.313 19.2344 101.579 19.2344ZM101.239 7.04688C100.012 7.04688 99.0281 7.45312 98.2859 8.26562C97.5437 9.07031 97.1102 10.2344 96.9852 11.7578H104.86C104.86 10.2812 104.54 9.12891 103.899 8.30078C103.259 7.46484 102.372 7.04688 101.239 7.04688ZM112.222 6.01562C112.761 6.01562 113.339 6.07031 113.956 6.17969L113.734 7.29297C113.202 7.16016 112.652 7.09375 112.081 7.09375C110.995 7.09375 110.105 7.55469 109.409 8.47656C108.714 9.39844 108.366 10.5625 108.366 11.9688V19H107.206V6.26172H108.191L108.308 8.55859H108.39C108.913 7.62109 109.472 6.96484 110.066 6.58984C110.659 6.20703 111.378 6.01562 112.222 6.01562ZM119.244 19.2344C117.423 19.2344 115.998 18.6602 114.966 17.5117C113.935 16.3633 113.42 14.7617 113.42 12.707C113.42 10.5977 113.955 8.95703 115.025 7.78516C116.095 6.60547 117.56 6.01562 119.42 6.01562C120.521 6.01562 121.576 6.20703 122.584 6.58984L122.267 7.62109C121.166 7.25391 120.209 7.07031 119.396 7.07031C117.834 7.07031 116.65 7.55469 115.845 8.52344C115.041 9.48438 114.638 10.8711 114.638 12.6836C114.638 14.4023 115.041 15.75 115.845 16.7266C116.65 17.6953 117.775 18.1797 119.22 18.1797C120.377 18.1797 121.451 17.9727 122.443 17.5586V18.6367C121.63 19.0352 120.564 19.2344 119.244 19.2344ZM128.316 19.2344C126.465 19.2344 125.02 18.6641 123.98 17.5234C122.949 16.3828 122.434 14.7852 122.434 12.7305C122.434 10.6992 122.934 9.07422 123.934 7.85547C124.934 6.62891 126.281 6.01562 127.977 6.01562C129.477 6.01562 130.66 6.53906 131.527 7.58594C132.395 8.63281 132.828 10.0547 132.828 11.8516V12.7891H123.652C123.668 14.5391 124.074 15.875 124.871 16.7969C125.676 17.7188 126.824 18.1797 128.316 18.1797C129.043 18.1797 129.68 18.1289 130.227 18.0273C130.781 17.9258 131.48 17.707 132.324 17.3711V18.4258C131.605 18.7383 130.941 18.9492 130.332 19.0586C129.723 19.1758 129.051 19.2344 128.316 19.2344ZM127.977 7.04688C126.75 7.04688 125.766 7.45312 125.023 8.26562C124.281 9.07031 123.848 10.2344 123.723 11.7578H131.598C131.598 10.2812 131.277 9.12891 130.637 8.30078C129.996 7.46484 129.109 7.04688 127.977 7.04688Z" fill="#0CB093"/>
</svg>
